# xmcd
#
# Track frame offsets:
#	150
#	17885
#	34963
#	50414
#	68200
#	87196
#	101915
#	117626
#	131421
#	150398
#	162927
#	180759
#	195131
#	208623
#	222586
#	238815
#	252446
#	266731
#	285964
#	301570
#	318486
#
# Disc length: 4455 seconds
#
# Revision: 0
# Processed by: cddbd v1.5.2PL0 Copyright (c) Steve Scherf et al.
# Submitted via: EZCDAudioConverter 3.1.0.1
#
DISCID=24116515
DTITLE=Nu Country Traxx Volume 206 US
DYEAR=2016
DGENRE=country
TTITLE0=Brad Paisley ft. Demi Lovato - Without A Fight
TTITLE1=Cole Swindell - Middle Of A Memory
TTITLE2=Thompson Square - You Make It Look So Good
TTITLE3=Brett Eldredge - Wanna Be That Song
TTITLE4=Chris Stapleton - Parachute
TTITLE5=Florida Georgia Line - H.O.L.Y.
TTITLE6=Darius Rucker - So I Sang
TTITLE7=Parmalee - Roots
TTITLE8=Alan Jackson - The One You're Waiting On
TTITLE9=Maddie and Tae - Sierra
TTITLE10=Hillary Scott and The Scott Family - Thy Will
TTITLE11=Cassadee Pope - Summer
TTITLE12=Jerrod Niemann and Lee Brice - A Little More Love
TTITLE13=Craig Morgan - I'll Be Home Soon
TTITLE14=Josh Turner - Hometown Girl
TTITLE15=Runaway June - Lipstick
TTITLE16=Alabama ft. Alison Krauss - Come Find Her
TTITLE17=Aaron Watson - Bluebonnets (Julia's Song)
TTITLE18=Easton Corbin - Are You With Me
TTITLE19=Josh Abbott Band ft. Carly Pearce - Wasn't That Drunk
TTITLE20=The Cadillac Three - Drunk Like You
EXTD=
EXTT0=
EXTT1=
EXTT2=
EXTT3=
EXTT4=
EXTT5=
EXTT6=
EXTT7=
EXTT8=
EXTT9=
EXTT10=
EXTT11=
EXTT12=
EXTT13=
EXTT14=
EXTT15=
EXTT16=
EXTT17=
EXTT18=
EXTT19=
EXTT20=
PLAYORDER=
